<mxfile host="app.diagrams.net" modified="2024-03-01T19:17:32.269Z" agent="Mozilla/5.0 (Windows NT 10.0; Win64; x64; rv:123.0) Gecko/20100101 Firefox/123.0" etag="hjRdUSHomw0eVK8nvTTX" version="24.0.0" type="github">
  <diagram name="engineering powergrid" id="7e0a89b8-554c-2b80-1dc8-d5c74ca68de4">
    <mxGraphModel dx="1947" dy="770" grid="1" gridSize="10" guides="1" tooltips="1" connect="1" arrows="1" fold="1" page="1" pageScale="1" pageWidth="1280" pageHeight="960" background="none" math="0" shadow="0">
      <root>
        <mxCell id="0" />
        <mxCell id="1" parent="0" />
        <mxCell id="XPCSXLA68qlN_O1C0MtI-1" value="" style="rounded=0;whiteSpace=wrap;html=1;fillColor=none;strokeColor=none;" parent="1" vertex="1">
          <mxGeometry width="1280" height="960" as="geometry" />
        </mxCell>
        <mxCell id="myox8_UyH-Cyfy9n1glV-59" value="&lt;h2&gt;AYSE&lt;/h2&gt;" style="rounded=1;whiteSpace=wrap;html=1;fillColor=none;verticalAlign=top;labelPosition=center;verticalLabelPosition=middle;align=center;spacing=6;spacingLeft=4;spacingRight=4;" parent="1" vertex="1">
          <mxGeometry y="720" width="1280" height="240" as="geometry" />
        </mxCell>
        <mxCell id="myox8_UyH-Cyfy9n1glV-98" value="" style="rounded=1;whiteSpace=wrap;html=1;fontFamily=Helvetica;fontSize=11;fontColor=default;fillColor=none;spacing=6;spacingLeft=4;spacingRight=4;" parent="1" vertex="1">
          <mxGeometry x="570" y="260" width="220" height="360" as="geometry" />
        </mxCell>
        <mxCell id="1ztC85pV6qE-m2-LkMGd-132" value="120 V" style="edgeStyle=orthogonalEdgeStyle;shape=connector;rounded=0;jumpStyle=arc;orthogonalLoop=1;jettySize=auto;html=1;exitX=0;exitY=0.5;exitDx=0;exitDy=0;labelBackgroundColor=none;strokeColor=#001DBC;fontFamily=Helvetica;fontSize=8;fontColor=default;endArrow=none;endFill=0;fillColor=#0050ef;align=right;spacing=6;spacingLeft=4;spacingRight=4;entryX=0;entryY=0.8;entryDx=0;entryDy=0;entryPerimeter=0;" parent="1" source="1ztC85pV6qE-m2-LkMGd-64" target="1ztC85pV6qE-m2-LkMGd-18" edge="1">
          <mxGeometry x="-0.9999" y="11" relative="1" as="geometry">
            <mxPoint y="1" as="offset" />
            <mxPoint x="290" y="140" as="targetPoint" />
          </mxGeometry>
        </mxCell>
        <mxCell id="_JEZ3J47ZPrk2JFdRRhO-10" style="edgeStyle=orthogonalEdgeStyle;rounded=0;orthogonalLoop=1;jettySize=auto;html=1;exitX=0;exitY=0.6;exitDx=0;exitDy=0;exitPerimeter=0;entryX=1;entryY=0.5;entryDx=0;entryDy=0;strokeColor=#001DBC;endArrow=none;endFill=0;spacing=6;spacingLeft=4;spacingRight=4;" parent="1" source="1ztC85pV6qE-m2-LkMGd-18" target="iBqOPXZgStH-W47dtHoI-1" edge="1">
          <mxGeometry relative="1" as="geometry">
            <mxPoint x="90" y="190" as="targetPoint" />
          </mxGeometry>
        </mxCell>
        <mxCell id="_JEZ3J47ZPrk2JFdRRhO-14" style="edgeStyle=orthogonalEdgeStyle;shape=connector;rounded=0;orthogonalLoop=1;jettySize=auto;html=1;exitX=0;exitY=0.4;exitDx=0;exitDy=0;exitPerimeter=0;labelBackgroundColor=default;strokeColor=#001DBC;fontFamily=Helvetica;fontSize=11;fontColor=default;endArrow=none;endFill=0;spacing=6;spacingLeft=4;spacingRight=4;entryX=1;entryY=0.5;entryDx=0;entryDy=0;" parent="1" source="1ztC85pV6qE-m2-LkMGd-18" target="iBqOPXZgStH-W47dtHoI-3" edge="1">
          <mxGeometry relative="1" as="geometry">
            <Array as="points">
              <mxPoint x="230" y="90" />
              <mxPoint x="230" y="160" />
            </Array>
            <mxPoint x="85" y="95" as="targetPoint" />
          </mxGeometry>
        </mxCell>
        <mxCell id="1ztC85pV6qE-m2-LkMGd-146" value="10,000 V" style="edgeStyle=orthogonalEdgeStyle;shape=connector;rounded=0;jumpStyle=arc;orthogonalLoop=1;jettySize=auto;html=1;exitX=0;exitY=0.7;exitDx=0;exitDy=0;exitPerimeter=0;entryX=0.5;entryY=0;entryDx=0;entryDy=0;labelBackgroundColor=none;strokeColor=#99004D;fontFamily=Helvetica;fontSize=8;fontColor=default;endArrow=none;endFill=0;align=left;spacing=6;spacingLeft=4;spacingRight=4;" parent="1" source="1ztC85pV6qE-m2-LkMGd-19" target="1ztC85pV6qE-m2-LkMGd-46" edge="1">
          <mxGeometry x="0.9313" relative="1" as="geometry">
            <mxPoint as="offset" />
          </mxGeometry>
        </mxCell>
        <mxCell id="_JEZ3J47ZPrk2JFdRRhO-16" value="" style="edgeStyle=orthogonalEdgeStyle;shape=connector;rounded=0;orthogonalLoop=1;jettySize=auto;html=1;labelBackgroundColor=default;strokeColor=#99004D;fontFamily=Helvetica;fontSize=11;fontColor=default;endArrow=none;endFill=0;spacing=6;spacingLeft=4;spacingRight=4;exitX=1;exitY=0.5;exitDx=0;exitDy=0;exitPerimeter=0;" parent="1" source="1ztC85pV6qE-m2-LkMGd-19" target="_JEZ3J47ZPrk2JFdRRhO-15" edge="1">
          <mxGeometry relative="1" as="geometry" />
        </mxCell>
        <mxCell id="_JEZ3J47ZPrk2JFdRRhO-17" value="10,000 V" style="edgeStyle=orthogonalEdgeStyle;shape=connector;rounded=0;orthogonalLoop=1;jettySize=auto;html=1;labelBackgroundColor=none;strokeColor=#99004D;fontFamily=Helvetica;fontSize=8;fontColor=default;endArrow=none;endFill=0;align=left;verticalAlign=middle;entryX=1;entryY=0.5;entryDx=0;entryDy=0;spacing=6;spacingLeft=4;spacingRight=4;" parent="1" target="1ztC85pV6qE-m2-LkMGd-64" edge="1">
          <mxGeometry x="1" y="11" relative="1" as="geometry">
            <mxPoint x="504" y="322" as="targetPoint" />
            <Array as="points">
              <mxPoint x="430" y="400" />
              <mxPoint x="430" y="269" />
            </Array>
            <mxPoint as="offset" />
            <mxPoint x="450" y="400" as="sourcePoint" />
          </mxGeometry>
        </mxCell>
        <mxCell id="myox8_UyH-Cyfy9n1glV-95" style="edgeStyle=orthogonalEdgeStyle;shape=connector;rounded=0;orthogonalLoop=1;jettySize=auto;html=1;exitX=1;exitY=0.5;exitDx=0;exitDy=0;entryX=0;entryY=0.2;entryDx=0;entryDy=0;entryPerimeter=0;labelBackgroundColor=default;strokeColor=#99004D;fontFamily=Helvetica;fontSize=11;fontColor=default;endArrow=none;endFill=0;spacing=6;spacingLeft=4;spacingRight=4;" parent="1" source="iBqOPXZgStH-W47dtHoI-2" target="1ztC85pV6qE-m2-LkMGd-19" edge="1">
          <mxGeometry relative="1" as="geometry">
            <Array as="points" />
            <mxPoint x="100" y="400.0000000000001" as="sourcePoint" />
          </mxGeometry>
        </mxCell>
        <mxCell id="myox8_UyH-Cyfy9n1glV-103" style="edgeStyle=orthogonalEdgeStyle;shape=connector;rounded=0;orthogonalLoop=1;jettySize=auto;html=1;exitX=1;exitY=0.5;exitDx=0;exitDy=0;exitPerimeter=0;labelBackgroundColor=default;strokeColor=#001DBC;fontFamily=Helvetica;fontSize=12;fontColor=default;endArrow=none;endFill=0;spacing=6;spacingLeft=4;spacingRight=4;" parent="1" source="1ztC85pV6qE-m2-LkMGd-18" edge="1">
          <mxGeometry relative="1" as="geometry">
            <mxPoint x="1270" y="100" as="targetPoint" />
          </mxGeometry>
        </mxCell>
        <mxCell id="1ztC85pV6qE-m2-LkMGd-19" value="&lt;div style=&quot;font-size: 12px;&quot;&gt;High-Voltage Habitat Bus&lt;br style=&quot;font-size: 12px;&quot;&gt;&lt;/div&gt;" style="shape=stencil(rZXhbsIgEMefhq+Gcpu6j6Zz74EVVyKDBjqdb++1tHWz0swCaZrc/Xs/esflIJC7kleCMFoSeCeMZZTiG+3znc1dJYraO0/cSr5TwiuutuYoznJfdwypS2Fl3aiwJXSD3zQP5IXRGiHSaPdH+aUjjEuNsfTHw7rtL521yLxN2MdsBItHQDziJR7xGo9YxiNW8Yh1POLteUSWoJwLwJWgRfvNb5BZf7PElaDbH2U1o8DjrNapsgp0DOToCY0ZyHe8OH5a863346igdjBWPBAGWSrlR+BEXhVvhuNI6OUvcxLB1p6qWA9QUgcBwwh/BjEEdZBVAgb8i1Eo46ZKif5ANfEyC51DGzY6yNbrL8DWcQU=);whiteSpace=wrap;html=1;strokeWidth=3;align=center;fontSize=12;spacing=6;spacingLeft=4;spacingRight=4;" parent="1" vertex="1">
          <mxGeometry x="280" y="350" width="70" height="100" as="geometry" />
        </mxCell>
        <mxCell id="1ztC85pV6qE-m2-LkMGd-64" value="High-Low Voltage Converter" style="rounded=0;whiteSpace=wrap;html=1;shadow=0;dashed=0;pointerEvents=1;strokeColor=default;strokeWidth=2;fontFamily=Helvetica;fontSize=8;fontColor=default;fillColor=default;align=center;spacing=6;spacingLeft=4;spacingRight=4;" parent="1" vertex="1">
          <mxGeometry x="290" y="241" width="60" height="55" as="geometry" />
        </mxCell>
        <mxCell id="myox8_UyH-Cyfy9n1glV-69" style="edgeStyle=orthogonalEdgeStyle;shape=connector;rounded=0;orthogonalLoop=1;jettySize=auto;html=1;exitX=0;exitY=0.5;exitDx=0;exitDy=0;labelBackgroundColor=default;strokeColor=#99004D;fontFamily=Helvetica;fontSize=11;fontColor=default;endArrow=none;endFill=0;spacing=6;spacingLeft=4;spacingRight=4;" parent="1" source="1ztC85pV6qE-m2-LkMGd-78" edge="1">
          <mxGeometry relative="1" as="geometry">
            <mxPoint x="1040" y="640" as="targetPoint" />
            <Array as="points">
              <mxPoint x="1040" y="400" />
              <mxPoint x="1040" y="535" />
              <mxPoint x="1041" y="535" />
              <mxPoint x="1041" y="640" />
            </Array>
          </mxGeometry>
        </mxCell>
        <mxCell id="1ztC85pV6qE-m2-LkMGd-78" value="Radar" style="rounded=0;whiteSpace=wrap;html=1;shadow=0;dashed=0;pointerEvents=1;strokeColor=default;strokeWidth=2;fontFamily=Helvetica;fontSize=12;fontColor=default;fillColor=default;spacing=6;spacingLeft=4;spacingRight=4;" parent="1" vertex="1">
          <mxGeometry x="1061" y="370" width="75" height="60" as="geometry" />
        </mxCell>
        <mxCell id="myox8_UyH-Cyfy9n1glV-70" style="edgeStyle=orthogonalEdgeStyle;shape=connector;rounded=0;orthogonalLoop=1;jettySize=auto;html=1;exitX=0;exitY=0.5;exitDx=0;exitDy=0;labelBackgroundColor=default;strokeColor=#99004D;fontFamily=Helvetica;fontSize=11;fontColor=default;endArrow=none;endFill=0;spacing=6;spacingLeft=4;spacingRight=4;" parent="1" source="1ztC85pV6qE-m2-LkMGd-79" edge="1">
          <mxGeometry relative="1" as="geometry">
            <mxPoint x="1040" y="640" as="targetPoint" />
            <Array as="points">
              <mxPoint x="1140" y="400" />
              <mxPoint x="1140" y="440" />
              <mxPoint x="1041" y="440" />
              <mxPoint x="1041" y="640" />
            </Array>
          </mxGeometry>
        </mxCell>
        <mxCell id="1ztC85pV6qE-m2-LkMGd-79" value="&lt;div&gt;Artificial Gravity&lt;/div&gt;" style="rounded=0;whiteSpace=wrap;html=1;shadow=0;dashed=0;pointerEvents=1;strokeColor=default;strokeWidth=2;fontFamily=Helvetica;fontSize=12;fontColor=default;fillColor=default;spacing=6;spacingLeft=4;spacingRight=4;" parent="1" vertex="1">
          <mxGeometry x="1166" y="370" width="75" height="60" as="geometry" />
        </mxCell>
        <mxCell id="myox8_UyH-Cyfy9n1glV-66" style="edgeStyle=orthogonalEdgeStyle;shape=connector;rounded=0;orthogonalLoop=1;jettySize=auto;html=1;labelBackgroundColor=default;strokeColor=#99004D;fontFamily=Helvetica;fontSize=11;fontColor=default;endArrow=none;endFill=0;spacing=6;spacingLeft=4;spacingRight=4;exitX=1.017;exitY=0.6;exitDx=0;exitDy=0;exitPerimeter=0;" parent="1" source="_JEZ3J47ZPrk2JFdRRhO-15" edge="1">
          <mxGeometry relative="1" as="geometry">
            <mxPoint x="480" y="640" as="targetPoint" />
          </mxGeometry>
        </mxCell>
        <mxCell id="_JEZ3J47ZPrk2JFdRRhO-15" value="" style="shape=waypoint;sketch=0;size=6;pointerEvents=1;points=[];fillColor=default;resizable=0;rotatable=0;perimeter=centerPerimeter;snapToPoint=1;strokeWidth=3;strokeColor=#99004D;spacing=6;spacingLeft=4;spacingRight=4;" parent="1" vertex="1">
          <mxGeometry x="470" y="390" width="20" height="20" as="geometry" />
        </mxCell>
        <mxCell id="myox8_UyH-Cyfy9n1glV-68" style="edgeStyle=orthogonalEdgeStyle;shape=connector;rounded=0;orthogonalLoop=1;jettySize=auto;html=1;exitX=0;exitY=0.5;exitDx=0;exitDy=0;labelBackgroundColor=default;strokeColor=#99004D;fontFamily=Helvetica;fontSize=11;fontColor=default;endArrow=none;endFill=0;spacing=6;spacingLeft=4;spacingRight=4;" parent="1" source="_JEZ3J47ZPrk2JFdRRhO-18" edge="1">
          <mxGeometry relative="1" as="geometry">
            <mxPoint x="1040" y="640" as="targetPoint" />
            <Array as="points">
              <mxPoint x="1040" y="333" />
              <mxPoint x="1040" y="502" />
              <mxPoint x="1041" y="502" />
              <mxPoint x="1041" y="640" />
            </Array>
          </mxGeometry>
        </mxCell>
        <mxCell id="_JEZ3J47ZPrk2JFdRRhO-18" value="Secondary Radiation Shielding" style="rounded=0;whiteSpace=wrap;html=1;shadow=0;dashed=0;pointerEvents=1;strokeColor=default;strokeWidth=2;fontFamily=Helvetica;fontSize=12;fontColor=default;fillColor=default;spacing=6;spacingLeft=4;spacingRight=4;" parent="1" vertex="1">
          <mxGeometry x="1061" y="303" width="180" height="60" as="geometry" />
        </mxCell>
        <mxCell id="myox8_UyH-Cyfy9n1glV-67" style="edgeStyle=orthogonalEdgeStyle;shape=connector;rounded=0;orthogonalLoop=1;jettySize=auto;html=1;exitX=0;exitY=0.5;exitDx=0;exitDy=0;labelBackgroundColor=default;strokeColor=#99004D;fontFamily=Helvetica;fontSize=11;fontColor=default;endArrow=none;endFill=0;spacing=6;spacingLeft=4;spacingRight=4;" parent="1" source="_JEZ3J47ZPrk2JFdRRhO-19" edge="1">
          <mxGeometry relative="1" as="geometry">
            <mxPoint x="1040" y="640" as="targetPoint" />
            <Array as="points">
              <mxPoint x="1040" y="266" />
              <mxPoint x="1040" y="468" />
              <mxPoint x="1041" y="468" />
              <mxPoint x="1041" y="640" />
            </Array>
          </mxGeometry>
        </mxCell>
        <mxCell id="_JEZ3J47ZPrk2JFdRRhO-19" value="Primary Radiation Shielding" style="rounded=0;whiteSpace=wrap;html=1;shadow=0;dashed=0;pointerEvents=1;strokeColor=default;strokeWidth=2;fontFamily=Helvetica;fontSize=12;fontColor=default;fillColor=default;spacing=6;spacingLeft=4;spacingRight=4;" parent="1" vertex="1">
          <mxGeometry x="1061" y="236" width="180" height="60" as="geometry" />
        </mxCell>
        <mxCell id="myox8_UyH-Cyfy9n1glV-22" style="edgeStyle=orthogonalEdgeStyle;shape=connector;rounded=0;orthogonalLoop=1;jettySize=auto;html=1;exitX=0;exitY=0.5;exitDx=0;exitDy=0;labelBackgroundColor=default;strokeColor=#99004D;fontFamily=Helvetica;fontSize=12;fontColor=default;endArrow=none;endFill=0;spacing=6;spacingLeft=4;spacingRight=4;" parent="1" source="_JEZ3J47ZPrk2JFdRRhO-20" edge="1">
          <mxGeometry relative="1" as="geometry">
            <mxPoint x="814" y="638" as="targetPoint" />
          </mxGeometry>
        </mxCell>
        <mxCell id="_JEZ3J47ZPrk2JFdRRhO-20" value="&lt;div&gt;Primary Reactor Containment&lt;/div&gt;" style="rounded=0;html=1;shadow=0;dashed=0;pointerEvents=1;strokeColor=default;strokeWidth=2;fontFamily=Helvetica;fontSize=12;fontColor=default;fillColor=default;whiteSpace=wrap;spacing=6;spacingLeft=4;spacingRight=4;" parent="1" vertex="1">
          <mxGeometry x="844" y="236" width="190" height="60" as="geometry" />
        </mxCell>
        <mxCell id="myox8_UyH-Cyfy9n1glV-33" style="edgeStyle=orthogonalEdgeStyle;shape=connector;rounded=0;orthogonalLoop=1;jettySize=auto;html=1;exitX=0;exitY=0.5;exitDx=0;exitDy=0;labelBackgroundColor=default;strokeColor=#99004D;fontFamily=Helvetica;fontSize=12;fontColor=default;endArrow=none;endFill=0;spacing=6;spacingLeft=4;spacingRight=4;" parent="1" source="_JEZ3J47ZPrk2JFdRRhO-21" edge="1">
          <mxGeometry relative="1" as="geometry">
            <mxPoint x="814" y="638" as="targetPoint" />
          </mxGeometry>
        </mxCell>
        <mxCell id="_JEZ3J47ZPrk2JFdRRhO-21" value="Secondary Reactor Containment" style="rounded=0;whiteSpace=wrap;html=1;shadow=0;dashed=0;pointerEvents=1;strokeColor=default;strokeWidth=2;fontFamily=Helvetica;fontSize=12;fontColor=default;fillColor=default;spacing=6;spacingLeft=4;spacingRight=4;" parent="1" vertex="1">
          <mxGeometry x="844" y="303" width="190" height="60" as="geometry" />
        </mxCell>
        <mxCell id="myox8_UyH-Cyfy9n1glV-32" style="edgeStyle=orthogonalEdgeStyle;shape=connector;rounded=0;orthogonalLoop=1;jettySize=auto;html=1;exitX=0;exitY=0.5;exitDx=0;exitDy=0;labelBackgroundColor=default;strokeColor=#99004D;fontFamily=Helvetica;fontSize=12;fontColor=default;endArrow=none;endFill=0;spacing=6;spacingLeft=4;spacingRight=4;" parent="1" source="_JEZ3J47ZPrk2JFdRRhO-22" edge="1">
          <mxGeometry relative="1" as="geometry">
            <mxPoint x="814" y="638" as="targetPoint" />
          </mxGeometry>
        </mxCell>
        <mxCell id="_JEZ3J47ZPrk2JFdRRhO-22" value="Primary Reactor Injector" style="rounded=0;whiteSpace=wrap;html=1;shadow=0;dashed=0;pointerEvents=1;strokeColor=default;strokeWidth=2;fontFamily=Helvetica;fontSize=12;fontColor=default;fillColor=default;spacing=6;spacingLeft=4;spacingRight=4;" parent="1" vertex="1">
          <mxGeometry x="844" y="370" width="190" height="60" as="geometry" />
        </mxCell>
        <mxCell id="myox8_UyH-Cyfy9n1glV-31" style="edgeStyle=orthogonalEdgeStyle;shape=connector;rounded=0;orthogonalLoop=1;jettySize=auto;html=1;exitX=0;exitY=0.5;exitDx=0;exitDy=0;labelBackgroundColor=default;strokeColor=#99004D;fontFamily=Helvetica;fontSize=12;fontColor=default;endArrow=none;endFill=0;spacing=6;spacingLeft=4;spacingRight=4;" parent="1" source="_JEZ3J47ZPrk2JFdRRhO-23" edge="1">
          <mxGeometry relative="1" as="geometry">
            <mxPoint x="814" y="638" as="targetPoint" />
          </mxGeometry>
        </mxCell>
        <mxCell id="_JEZ3J47ZPrk2JFdRRhO-23" value="Secondary Reactor Injector" style="rounded=0;whiteSpace=wrap;html=1;shadow=0;dashed=0;pointerEvents=1;strokeColor=default;strokeWidth=2;fontFamily=Helvetica;fontSize=12;fontColor=default;fillColor=default;spacing=6;spacingLeft=4;spacingRight=4;" parent="1" vertex="1">
          <mxGeometry x="844" y="437" width="190" height="60" as="geometry" />
        </mxCell>
        <mxCell id="myox8_UyH-Cyfy9n1glV-71" style="edgeStyle=orthogonalEdgeStyle;shape=connector;rounded=0;orthogonalLoop=1;jettySize=auto;html=1;exitX=0;exitY=0.5;exitDx=0;exitDy=0;labelBackgroundColor=default;strokeColor=#99004D;fontFamily=Helvetica;fontSize=11;fontColor=default;endArrow=none;endFill=0;spacing=6;spacingLeft=4;spacingRight=4;" parent="1" source="_JEZ3J47ZPrk2JFdRRhO-24" edge="1">
          <mxGeometry relative="1" as="geometry">
            <mxPoint x="575" y="640" as="targetPoint" />
          </mxGeometry>
        </mxCell>
        <mxCell id="_JEZ3J47ZPrk2JFdRRhO-24" value="ION1" style="rounded=0;html=1;shadow=0;dashed=0;pointerEvents=1;strokeColor=default;strokeWidth=2;fontFamily=Helvetica;fontSize=12;fontColor=default;fillColor=default;whiteSpace=wrap;spacing=6;spacingLeft=4;spacingRight=4;" parent="1" vertex="1">
          <mxGeometry x="595" y="317.5" width="80" height="60" as="geometry" />
        </mxCell>
        <mxCell id="myox8_UyH-Cyfy9n1glV-75" style="edgeStyle=orthogonalEdgeStyle;shape=connector;rounded=0;orthogonalLoop=1;jettySize=auto;html=1;exitX=1;exitY=0.5;exitDx=0;exitDy=0;labelBackgroundColor=default;strokeColor=#99004D;fontFamily=Helvetica;fontSize=11;fontColor=default;endArrow=none;endFill=0;spacing=6;spacingLeft=4;spacingRight=4;" parent="1" source="_JEZ3J47ZPrk2JFdRRhO-27" edge="1">
          <mxGeometry relative="1" as="geometry">
            <mxPoint x="785" y="640" as="targetPoint" />
          </mxGeometry>
        </mxCell>
        <mxCell id="_JEZ3J47ZPrk2JFdRRhO-27" value="ACC1" style="rounded=0;html=1;shadow=0;dashed=0;pointerEvents=1;strokeColor=default;strokeWidth=2;fontFamily=Helvetica;fontSize=12;fontColor=default;fillColor=default;whiteSpace=wrap;spacing=6;spacingLeft=4;spacingRight=4;" parent="1" vertex="1">
          <mxGeometry x="685" y="350" width="80" height="60" as="geometry" />
        </mxCell>
        <mxCell id="myox8_UyH-Cyfy9n1glV-76" style="edgeStyle=orthogonalEdgeStyle;shape=connector;rounded=0;orthogonalLoop=1;jettySize=auto;html=1;exitX=0;exitY=0.5;exitDx=0;exitDy=0;labelBackgroundColor=default;strokeColor=#99004D;fontFamily=Helvetica;fontSize=11;fontColor=default;endArrow=none;endFill=0;spacing=6;spacingLeft=4;spacingRight=4;" parent="1" source="_JEZ3J47ZPrk2JFdRRhO-32" edge="1">
          <mxGeometry relative="1" as="geometry">
            <mxPoint x="575" y="640" as="targetPoint" />
          </mxGeometry>
        </mxCell>
        <mxCell id="_JEZ3J47ZPrk2JFdRRhO-32" value="ION2" style="rounded=0;html=1;shadow=0;dashed=0;pointerEvents=1;strokeColor=default;strokeWidth=2;fontFamily=Helvetica;fontSize=12;fontColor=default;fillColor=default;whiteSpace=wrap;spacing=6;spacingLeft=4;spacingRight=4;" parent="1" vertex="1">
          <mxGeometry x="595" y="383" width="80" height="60" as="geometry" />
        </mxCell>
        <mxCell id="myox8_UyH-Cyfy9n1glV-77" style="edgeStyle=orthogonalEdgeStyle;shape=connector;rounded=0;orthogonalLoop=1;jettySize=auto;html=1;exitX=1;exitY=0.5;exitDx=0;exitDy=0;labelBackgroundColor=default;strokeColor=#99004D;fontFamily=Helvetica;fontSize=11;fontColor=default;endArrow=none;endFill=0;spacing=6;spacingLeft=4;spacingRight=4;" parent="1" source="_JEZ3J47ZPrk2JFdRRhO-33" edge="1">
          <mxGeometry relative="1" as="geometry">
            <mxPoint x="785" y="640" as="targetPoint" />
          </mxGeometry>
        </mxCell>
        <mxCell id="_JEZ3J47ZPrk2JFdRRhO-33" value="ACC2" style="rounded=0;html=1;shadow=0;dashed=0;pointerEvents=1;strokeColor=default;strokeWidth=2;fontFamily=Helvetica;fontSize=12;fontColor=default;fillColor=default;whiteSpace=wrap;spacing=6;spacingLeft=4;spacingRight=4;" parent="1" vertex="1">
          <mxGeometry x="685" y="416" width="80" height="60" as="geometry" />
        </mxCell>
        <mxCell id="myox8_UyH-Cyfy9n1glV-78" style="edgeStyle=orthogonalEdgeStyle;shape=connector;rounded=0;orthogonalLoop=1;jettySize=auto;html=1;exitX=0;exitY=0.5;exitDx=0;exitDy=0;labelBackgroundColor=default;strokeColor=#99004D;fontFamily=Helvetica;fontSize=11;fontColor=default;endArrow=none;endFill=0;spacing=6;spacingLeft=4;spacingRight=4;" parent="1" source="_JEZ3J47ZPrk2JFdRRhO-34" edge="1">
          <mxGeometry relative="1" as="geometry">
            <mxPoint x="575" y="640" as="targetPoint" />
          </mxGeometry>
        </mxCell>
        <mxCell id="_JEZ3J47ZPrk2JFdRRhO-34" value="ION3" style="rounded=0;html=1;shadow=0;dashed=0;pointerEvents=1;strokeColor=default;strokeWidth=2;fontFamily=Helvetica;fontSize=12;fontColor=default;fillColor=default;whiteSpace=wrap;spacing=6;spacingLeft=4;spacingRight=4;" parent="1" vertex="1">
          <mxGeometry x="595" y="449" width="80" height="60" as="geometry" />
        </mxCell>
        <mxCell id="myox8_UyH-Cyfy9n1glV-79" style="edgeStyle=orthogonalEdgeStyle;shape=connector;rounded=0;orthogonalLoop=1;jettySize=auto;html=1;exitX=1;exitY=0.5;exitDx=0;exitDy=0;labelBackgroundColor=default;strokeColor=#99004D;fontFamily=Helvetica;fontSize=11;fontColor=default;endArrow=none;endFill=0;spacing=6;spacingLeft=4;spacingRight=4;" parent="1" source="_JEZ3J47ZPrk2JFdRRhO-35" edge="1">
          <mxGeometry relative="1" as="geometry">
            <mxPoint x="785" y="640" as="targetPoint" />
          </mxGeometry>
        </mxCell>
        <mxCell id="_JEZ3J47ZPrk2JFdRRhO-35" value="ACC3" style="rounded=0;html=1;shadow=0;dashed=0;pointerEvents=1;strokeColor=default;strokeWidth=2;fontFamily=Helvetica;fontSize=12;fontColor=default;fillColor=default;whiteSpace=wrap;spacing=6;spacingLeft=4;spacingRight=4;" parent="1" vertex="1">
          <mxGeometry x="685" y="482" width="80" height="60" as="geometry" />
        </mxCell>
        <mxCell id="myox8_UyH-Cyfy9n1glV-80" style="edgeStyle=orthogonalEdgeStyle;shape=connector;rounded=0;orthogonalLoop=1;jettySize=auto;html=1;exitX=0;exitY=0.5;exitDx=0;exitDy=0;labelBackgroundColor=default;strokeColor=#99004D;fontFamily=Helvetica;fontSize=11;fontColor=default;endArrow=none;endFill=0;spacing=6;spacingLeft=4;spacingRight=4;" parent="1" source="_JEZ3J47ZPrk2JFdRRhO-36" edge="1">
          <mxGeometry relative="1" as="geometry">
            <mxPoint x="575" y="640" as="targetPoint" />
          </mxGeometry>
        </mxCell>
        <mxCell id="_JEZ3J47ZPrk2JFdRRhO-36" value="ION4" style="rounded=0;html=1;shadow=0;dashed=0;pointerEvents=1;strokeColor=default;strokeWidth=2;fontFamily=Helvetica;fontSize=12;fontColor=default;fillColor=default;whiteSpace=wrap;spacing=6;spacingLeft=4;spacingRight=4;" parent="1" vertex="1">
          <mxGeometry x="595" y="515" width="80" height="60" as="geometry" />
        </mxCell>
        <mxCell id="myox8_UyH-Cyfy9n1glV-81" style="edgeStyle=orthogonalEdgeStyle;shape=connector;rounded=0;orthogonalLoop=1;jettySize=auto;html=1;exitX=1;exitY=0.5;exitDx=0;exitDy=0;labelBackgroundColor=default;strokeColor=#99004D;fontFamily=Helvetica;fontSize=11;fontColor=default;endArrow=none;endFill=0;spacing=6;spacingLeft=4;spacingRight=4;" parent="1" source="_JEZ3J47ZPrk2JFdRRhO-37" edge="1">
          <mxGeometry relative="1" as="geometry">
            <mxPoint x="785" y="640" as="targetPoint" />
          </mxGeometry>
        </mxCell>
        <mxCell id="_JEZ3J47ZPrk2JFdRRhO-37" value="ACC4" style="rounded=0;html=1;shadow=0;dashed=0;pointerEvents=1;strokeColor=default;strokeWidth=2;fontFamily=Helvetica;fontSize=12;fontColor=default;fillColor=default;whiteSpace=wrap;spacing=6;spacingLeft=4;spacingRight=4;" parent="1" vertex="1">
          <mxGeometry x="685" y="548" width="80" height="60" as="geometry" />
        </mxCell>
        <mxCell id="myox8_UyH-Cyfy9n1glV-11" value="" style="html=1;rounded=0;labelBackgroundColor=default;strokeColor=#99004D;fontFamily=Helvetica;fontSize=11;fontColor=default;endArrow=none;endFill=0;spacing=6;spacingLeft=4;spacingRight=4;" parent="1" edge="1">
          <mxGeometry width="100" relative="1" as="geometry">
            <mxPoint x="480" y="640" as="sourcePoint" />
            <mxPoint x="1040" y="640" as="targetPoint" />
          </mxGeometry>
        </mxCell>
        <mxCell id="myox8_UyH-Cyfy9n1glV-36" style="edgeStyle=orthogonalEdgeStyle;shape=connector;rounded=0;orthogonalLoop=1;jettySize=auto;html=1;exitX=0;exitY=0.5;exitDx=0;exitDy=0;labelBackgroundColor=default;strokeColor=#99004D;fontFamily=Helvetica;fontSize=12;fontColor=default;endArrow=none;endFill=0;spacing=6;spacingLeft=4;spacingRight=4;" parent="1" source="myox8_UyH-Cyfy9n1glV-34" edge="1">
          <mxGeometry relative="1" as="geometry">
            <mxPoint x="1040" y="640" as="targetPoint" />
            <Array as="points">
              <mxPoint x="1040" y="550" />
              <mxPoint x="1040" y="610" />
              <mxPoint x="1041" y="610" />
              <mxPoint x="1041" y="640" />
            </Array>
          </mxGeometry>
        </mxCell>
        <mxCell id="myox8_UyH-Cyfy9n1glV-34" value="Primary Engine Injector" style="rounded=0;whiteSpace=wrap;html=1;shadow=0;dashed=0;pointerEvents=1;strokeColor=default;strokeWidth=2;fontFamily=Helvetica;fontSize=12;fontColor=default;fillColor=default;spacing=6;spacingLeft=4;spacingRight=4;" parent="1" vertex="1">
          <mxGeometry x="1061" y="520" width="180" height="60" as="geometry" />
        </mxCell>
        <mxCell id="myox8_UyH-Cyfy9n1glV-64" style="edgeStyle=orthogonalEdgeStyle;shape=connector;rounded=0;orthogonalLoop=1;jettySize=auto;html=1;exitX=0;exitY=0.5;exitDx=0;exitDy=0;labelBackgroundColor=default;strokeColor=#99004D;fontFamily=Helvetica;fontSize=11;fontColor=default;endArrow=none;endFill=0;spacing=6;spacingLeft=4;spacingRight=4;" parent="1" source="myox8_UyH-Cyfy9n1glV-35" edge="1">
          <mxGeometry relative="1" as="geometry">
            <mxPoint x="1040" y="640" as="targetPoint" />
          </mxGeometry>
        </mxCell>
        <mxCell id="myox8_UyH-Cyfy9n1glV-35" value="Secondary Engine Injector" style="rounded=0;whiteSpace=wrap;html=1;shadow=0;dashed=0;pointerEvents=1;strokeColor=default;strokeWidth=2;fontFamily=Helvetica;fontSize=12;fontColor=default;fillColor=default;spacing=6;spacingLeft=4;spacingRight=4;" parent="1" vertex="1">
          <mxGeometry x="1061" y="587" width="180" height="60" as="geometry" />
        </mxCell>
        <mxCell id="myox8_UyH-Cyfy9n1glV-128" style="edgeStyle=orthogonalEdgeStyle;shape=connector;rounded=0;jumpStyle=arc;orthogonalLoop=1;jettySize=auto;html=1;exitX=1;exitY=0.5;exitDx=0;exitDy=0;entryX=0;entryY=0.3;entryDx=0;entryDy=0;entryPerimeter=0;labelBackgroundColor=none;strokeColor=#999900;fontFamily=Helvetica;fontSize=8;fontColor=default;endArrow=none;endFill=0;spacing=6;spacingLeft=4;spacingRight=4;" parent="1" source="iBqOPXZgStH-W47dtHoI-5" target="myox8_UyH-Cyfy9n1glV-126" edge="1">
          <mxGeometry relative="1" as="geometry">
            <mxPoint x="110" y="800" as="sourcePoint" />
          </mxGeometry>
        </mxCell>
        <mxCell id="1ztC85pV6qE-m2-LkMGd-46" value="AYSE-Habitat Link" style="rounded=0;whiteSpace=wrap;html=1;fillColor=default;strokeWidth=3;spacing=6;spacingLeft=4;spacingRight=4;" parent="1" vertex="1">
          <mxGeometry x="230" y="690" width="60" height="60" as="geometry" />
        </mxCell>
        <mxCell id="myox8_UyH-Cyfy9n1glV-83" value="Loop 2 Primary Coolant Pump" style="rounded=0;html=1;shadow=0;dashed=0;pointerEvents=1;strokeColor=default;strokeWidth=2;fontFamily=Helvetica;fontSize=12;fontColor=default;fillColor=default;whiteSpace=wrap;spacing=6;spacingLeft=4;spacingRight=4;" parent="1" vertex="1">
          <mxGeometry x="650" y="125" width="140" height="70" as="geometry" />
        </mxCell>
        <mxCell id="myox8_UyH-Cyfy9n1glV-93" style="edgeStyle=orthogonalEdgeStyle;shape=connector;rounded=0;orthogonalLoop=1;jettySize=auto;html=1;exitX=0.5;exitY=1;exitDx=0;exitDy=0;labelBackgroundColor=default;strokeColor=#001DBC;fontFamily=Helvetica;fontSize=11;fontColor=default;endArrow=none;endFill=0;spacing=6;spacingLeft=4;spacingRight=4;" parent="1" source="myox8_UyH-Cyfy9n1glV-84" edge="1">
          <mxGeometry relative="1" as="geometry">
            <mxPoint x="583" y="100" as="targetPoint" />
          </mxGeometry>
        </mxCell>
        <mxCell id="myox8_UyH-Cyfy9n1glV-84" value="Loop 1 Secondary Coolant Pump" style="rounded=0;html=1;shadow=0;dashed=0;pointerEvents=1;strokeColor=default;strokeWidth=2;fontFamily=Helvetica;fontSize=12;fontColor=default;fillColor=default;whiteSpace=wrap;spacing=6;spacingLeft=4;spacingRight=4;" parent="1" vertex="1">
          <mxGeometry x="513" y="19" width="140" height="70" as="geometry" />
        </mxCell>
        <mxCell id="myox8_UyH-Cyfy9n1glV-91" style="edgeStyle=orthogonalEdgeStyle;shape=connector;rounded=0;orthogonalLoop=1;jettySize=auto;html=1;exitX=0.5;exitY=1;exitDx=0;exitDy=0;labelBackgroundColor=default;strokeColor=#001DBC;fontFamily=Helvetica;fontSize=11;fontColor=default;endArrow=none;endFill=0;spacing=6;spacingLeft=4;spacingRight=4;" parent="1" source="myox8_UyH-Cyfy9n1glV-85" edge="1">
          <mxGeometry relative="1" as="geometry">
            <mxPoint x="733" y="100" as="targetPoint" />
          </mxGeometry>
        </mxCell>
        <mxCell id="myox8_UyH-Cyfy9n1glV-85" value="Loop 2 Secondary Coolant Pump" style="rounded=0;html=1;shadow=0;dashed=0;pointerEvents=1;strokeColor=default;strokeWidth=2;fontFamily=Helvetica;fontSize=12;fontColor=default;fillColor=default;whiteSpace=wrap;spacing=6;spacingLeft=4;spacingRight=4;" parent="1" vertex="1">
          <mxGeometry x="663" y="19" width="140" height="70" as="geometry" />
        </mxCell>
        <mxCell id="myox8_UyH-Cyfy9n1glV-101" value="Main Engines" style="rounded=0;whiteSpace=wrap;html=1;fontFamily=Helvetica;fontSize=11;fontColor=default;fontStyle=1;strokeWidth=2;spacing=6;spacingLeft=4;spacingRight=4;" parent="1" vertex="1">
          <mxGeometry x="595" y="273" width="170" height="30" as="geometry" />
        </mxCell>
        <mxCell id="myox8_UyH-Cyfy9n1glV-105" value="INS" style="rounded=0;whiteSpace=wrap;html=1;shadow=0;dashed=0;pointerEvents=1;strokeColor=default;strokeWidth=2;fontFamily=Helvetica;fontSize=12;fontColor=default;fillColor=default;spacing=6;spacingLeft=4;spacingRight=4;" parent="1" vertex="1">
          <mxGeometry x="1134" y="29" width="60" height="60" as="geometry" />
        </mxCell>
        <mxCell id="myox8_UyH-Cyfy9n1glV-106" value="LOS" style="rounded=0;whiteSpace=wrap;html=1;shadow=0;dashed=0;pointerEvents=1;strokeColor=default;strokeWidth=2;fontFamily=Helvetica;fontSize=12;fontColor=default;fillColor=default;spacing=6;spacingLeft=4;spacingRight=4;" parent="1" vertex="1">
          <mxGeometry x="1134" y="109" width="60" height="60" as="geometry" />
        </mxCell>
        <mxCell id="myox8_UyH-Cyfy9n1glV-107" value="GNC" style="rounded=0;whiteSpace=wrap;html=1;shadow=0;dashed=0;pointerEvents=1;strokeColor=default;strokeWidth=2;fontFamily=Helvetica;fontSize=12;fontColor=default;fillColor=default;spacing=6;spacingLeft=4;spacingRight=4;" parent="1" vertex="1">
          <mxGeometry x="1204" y="29" width="60" height="60" as="geometry" />
        </mxCell>
        <mxCell id="myox8_UyH-Cyfy9n1glV-108" value="COM" style="rounded=0;whiteSpace=wrap;html=1;shadow=0;dashed=0;pointerEvents=1;strokeColor=default;strokeWidth=2;fontFamily=Helvetica;fontSize=12;fontColor=default;fillColor=default;spacing=6;spacingLeft=4;spacingRight=4;" parent="1" vertex="1">
          <mxGeometry x="1204" y="109" width="60" height="60" as="geometry" />
        </mxCell>
        <mxCell id="myox8_UyH-Cyfy9n1glV-121" value="EECOM" style="rounded=0;whiteSpace=wrap;html=1;shadow=0;dashed=0;pointerEvents=1;strokeColor=default;strokeWidth=2;fontFamily=Helvetica;fontSize=12;fontColor=default;fillColor=default;spacing=6;spacingLeft=4;spacingRight=4;movable=1;resizable=1;rotatable=1;deletable=1;editable=1;locked=0;connectable=1;" parent="1" vertex="1">
          <mxGeometry x="994" y="29" width="60" height="60" as="geometry" />
        </mxCell>
        <mxCell id="myox8_UyH-Cyfy9n1glV-122" value="Network" style="rounded=0;whiteSpace=wrap;html=1;shadow=0;dashed=0;pointerEvents=1;strokeColor=default;strokeWidth=2;fontFamily=Helvetica;fontSize=12;fontColor=default;fillColor=default;spacing=6;spacingLeft=4;spacingRight=4;" parent="1" vertex="1">
          <mxGeometry x="1064" y="29" width="60" height="60" as="geometry" />
        </mxCell>
        <mxCell id="myox8_UyH-Cyfy9n1glV-137" style="edgeStyle=orthogonalEdgeStyle;shape=connector;rounded=0;jumpStyle=arc;orthogonalLoop=1;jettySize=auto;html=1;exitX=1;exitY=0.5;exitDx=0;exitDy=0;exitPerimeter=0;labelBackgroundColor=none;strokeColor=#999900;fontFamily=Helvetica;fontSize=8;fontColor=default;endArrow=none;endFill=0;spacing=6;spacingLeft=4;spacingRight=4;" parent="1" source="myox8_UyH-Cyfy9n1glV-126" edge="1">
          <mxGeometry relative="1" as="geometry">
            <mxPoint x="1060" y="840" as="targetPoint" />
          </mxGeometry>
        </mxCell>
        <mxCell id="myox8_UyH-Cyfy9n1glV-126" value="&lt;div style=&quot;font-size: 12px;&quot;&gt;AYSE Power Bus&lt;br style=&quot;font-size: 12px;&quot;&gt;&lt;/div&gt;" style="shape=stencil(rZXhbsIgEMefhq+Gcpu6j6Zz74EVVyKDBjqdb++1tHWz0swCaZrc/Xs/esflIJC7kleCMFoSeCeMZZTiG+3znc1dJYraO0/cSr5TwiuutuYoznJfdwypS2Fl3aiwJXSD3zQP5IXRGiHSaPdH+aUjjEuNsfTHw7rtL521yLxN2MdsBItHQDziJR7xGo9YxiNW8Yh1POLteUSWoJwLwJWgRfvNb5BZf7PElaDbH2U1o8DjrNapsgp0DOToCY0ZyHe8OH5a863346igdjBWPBAGWSrlR+BEXhVvhuNI6OUvcxLB1p6qWA9QUgcBwwh/BjEEdZBVAgb8i1Eo46ZKif5ANfEyC51DGzY6yNbrL8DWcQU=);whiteSpace=wrap;html=1;strokeWidth=3;align=center;fontSize=12;spacing=6;spacingLeft=4;spacingRight=4;" parent="1" vertex="1">
          <mxGeometry x="320" y="790" width="70" height="100" as="geometry" />
        </mxCell>
        <mxCell id="myox8_UyH-Cyfy9n1glV-133" value="" style="edgeStyle=orthogonalEdgeStyle;shape=connector;rounded=0;jumpStyle=arc;orthogonalLoop=1;jettySize=auto;html=1;exitX=1;exitY=0.5;exitDx=0;exitDy=0;entryX=0;entryY=0.8;entryDx=0;entryDy=0;labelBackgroundColor=none;strokeColor=#999900;fontFamily=Helvetica;fontSize=8;fontColor=default;endArrow=none;endFill=0;spacing=6;spacingLeft=4;spacingRight=4;entryPerimeter=0;" parent="1" source="iBqOPXZgStH-W47dtHoI-6" target="myox8_UyH-Cyfy9n1glV-126" edge="1">
          <mxGeometry relative="1" as="geometry">
            <mxPoint x="85" y="905" as="sourcePoint" />
            <mxPoint x="210" y="870" as="targetPoint" />
          </mxGeometry>
        </mxCell>
        <mxCell id="myox8_UyH-Cyfy9n1glV-145" style="edgeStyle=orthogonalEdgeStyle;shape=connector;rounded=0;jumpStyle=arc;orthogonalLoop=1;jettySize=auto;html=1;labelBackgroundColor=none;strokeColor=#999900;fontFamily=Helvetica;fontSize=8;fontColor=default;endArrow=none;endFill=0;spacing=6;spacingLeft=4;spacingRight=4;exitX=0.5;exitY=1;exitDx=0;exitDy=0;" parent="1" source="myox8_UyH-Cyfy9n1glV-140" edge="1">
          <mxGeometry relative="1" as="geometry">
            <mxPoint x="480" y="840" as="targetPoint" />
          </mxGeometry>
        </mxCell>
        <mxCell id="myox8_UyH-Cyfy9n1glV-140" value="Graviton Emitter 1" style="rounded=0;whiteSpace=wrap;html=1;shadow=0;dashed=0;pointerEvents=1;strokeColor=default;strokeWidth=2;fontFamily=Helvetica;fontSize=12;fontColor=default;fillColor=default;spacing=6;spacingLeft=4;spacingRight=4;" parent="1" vertex="1">
          <mxGeometry x="420" y="772" width="120" height="50" as="geometry" />
        </mxCell>
        <mxCell id="myox8_UyH-Cyfy9n1glV-146" style="edgeStyle=orthogonalEdgeStyle;shape=connector;rounded=0;jumpStyle=arc;orthogonalLoop=1;jettySize=auto;html=1;exitX=0.5;exitY=0;exitDx=0;exitDy=0;labelBackgroundColor=none;strokeColor=#999900;fontFamily=Helvetica;fontSize=8;fontColor=default;endArrow=none;endFill=0;spacing=6;spacingLeft=4;spacingRight=4;" parent="1" source="myox8_UyH-Cyfy9n1glV-142" edge="1">
          <mxGeometry relative="1" as="geometry">
            <mxPoint x="480" y="840" as="targetPoint" />
          </mxGeometry>
        </mxCell>
        <mxCell id="myox8_UyH-Cyfy9n1glV-142" value="Graviton Emitter 2" style="rounded=0;whiteSpace=wrap;html=1;shadow=0;dashed=0;pointerEvents=1;strokeColor=default;strokeWidth=2;fontFamily=Helvetica;fontSize=12;fontColor=default;fillColor=default;spacing=6;spacingLeft=4;spacingRight=4;" parent="1" vertex="1">
          <mxGeometry x="420" y="860" width="120" height="50" as="geometry" />
        </mxCell>
        <mxCell id="myox8_UyH-Cyfy9n1glV-147" style="edgeStyle=orthogonalEdgeStyle;shape=connector;rounded=0;jumpStyle=arc;orthogonalLoop=1;jettySize=auto;html=1;exitX=0.5;exitY=1;exitDx=0;exitDy=0;labelBackgroundColor=none;strokeColor=#999900;fontFamily=Helvetica;fontSize=8;fontColor=default;endArrow=none;endFill=0;spacing=6;spacingLeft=4;spacingRight=4;" parent="1" source="myox8_UyH-Cyfy9n1glV-143" edge="1">
          <mxGeometry relative="1" as="geometry">
            <mxPoint x="610" y="840" as="targetPoint" />
          </mxGeometry>
        </mxCell>
        <mxCell id="myox8_UyH-Cyfy9n1glV-143" value="Graviton Emitter 3" style="rounded=0;whiteSpace=wrap;html=1;shadow=0;dashed=0;pointerEvents=1;strokeColor=default;strokeWidth=2;fontFamily=Helvetica;fontSize=12;fontColor=default;fillColor=default;spacing=6;spacingLeft=4;spacingRight=4;" parent="1" vertex="1">
          <mxGeometry x="550" y="772" width="120" height="50" as="geometry" />
        </mxCell>
        <mxCell id="myox8_UyH-Cyfy9n1glV-148" style="edgeStyle=orthogonalEdgeStyle;shape=connector;rounded=0;jumpStyle=arc;orthogonalLoop=1;jettySize=auto;html=1;exitX=0.5;exitY=0;exitDx=0;exitDy=0;labelBackgroundColor=none;strokeColor=#999900;fontFamily=Helvetica;fontSize=8;fontColor=default;endArrow=none;endFill=0;spacing=6;spacingLeft=4;spacingRight=4;" parent="1" source="myox8_UyH-Cyfy9n1glV-144" edge="1">
          <mxGeometry relative="1" as="geometry">
            <mxPoint x="610" y="840" as="targetPoint" />
          </mxGeometry>
        </mxCell>
        <mxCell id="myox8_UyH-Cyfy9n1glV-144" value="Graviton Emitter 4" style="rounded=0;whiteSpace=wrap;html=1;shadow=0;dashed=0;pointerEvents=1;strokeColor=default;strokeWidth=2;fontFamily=Helvetica;fontSize=12;fontColor=default;fillColor=default;spacing=6;spacingLeft=4;spacingRight=4;" parent="1" vertex="1">
          <mxGeometry x="550" y="860" width="120" height="50" as="geometry" />
        </mxCell>
        <mxCell id="myox8_UyH-Cyfy9n1glV-149" value="Secondary AYSE Reactor Containment" style="rounded=0;whiteSpace=wrap;html=1;shadow=0;dashed=0;pointerEvents=1;strokeColor=default;strokeWidth=2;fontFamily=Helvetica;fontSize=12;fontColor=default;fillColor=default;spacing=6;spacingLeft=4;spacingRight=4;" parent="1" vertex="1">
          <mxGeometry x="1000" y="752" width="120" height="70" as="geometry" />
        </mxCell>
        <mxCell id="myox8_UyH-Cyfy9n1glV-152" value="Primary AYSE Coolant Pump" style="rounded=0;whiteSpace=wrap;html=1;shadow=0;dashed=0;pointerEvents=1;strokeColor=default;strokeWidth=2;fontFamily=Helvetica;fontSize=12;fontColor=default;fillColor=default;spacing=6;spacingLeft=4;spacingRight=4;" parent="1" vertex="1">
          <mxGeometry x="870" y="854" width="120" height="80" as="geometry" />
        </mxCell>
        <mxCell id="myox8_UyH-Cyfy9n1glV-153" value="Secondary AYSE Coolant Pump" style="rounded=0;whiteSpace=wrap;html=1;shadow=0;dashed=0;pointerEvents=1;strokeColor=default;strokeWidth=2;fontFamily=Helvetica;fontSize=12;fontColor=default;fillColor=default;spacing=6;spacingLeft=4;spacingRight=4;" parent="1" vertex="1">
          <mxGeometry x="1000" y="854" width="120" height="80" as="geometry" />
        </mxCell>
        <mxCell id="myox8_UyH-Cyfy9n1glV-157" value="Tachyon-Tardyon Collider" style="rounded=0;whiteSpace=wrap;html=1;shadow=0;dashed=0;pointerEvents=1;strokeColor=default;strokeWidth=2;fontFamily=Helvetica;fontSize=12;fontColor=default;fillColor=default;spacing=6;spacingLeft=4;spacingRight=4;" parent="1" vertex="1">
          <mxGeometry x="740" y="752" width="120" height="70" as="geometry" />
        </mxCell>
        <mxCell id="myox8_UyH-Cyfy9n1glV-160" value="Primary AYSE Reactor Containment" style="rounded=0;whiteSpace=wrap;html=1;shadow=0;dashed=0;pointerEvents=1;strokeColor=default;strokeWidth=2;fontFamily=Helvetica;fontSize=12;fontColor=default;fillColor=default;spacing=6;spacingLeft=4;spacingRight=4;" parent="1" vertex="1">
          <mxGeometry x="870" y="752" width="120" height="70" as="geometry" />
        </mxCell>
        <mxCell id="tQ9dKehXmJsp5aBIyWJH-1" style="edgeStyle=orthogonalEdgeStyle;shape=connector;rounded=0;jumpStyle=arc;orthogonalLoop=1;jettySize=auto;html=1;exitX=1;exitY=0.5;exitDx=0;exitDy=0;entryX=0.5;entryY=1;entryDx=0;entryDy=0;labelBackgroundColor=none;strokeColor=#999900;fontFamily=Helvetica;fontSize=8;fontColor=default;endArrow=none;endFill=0;spacing=6;spacingLeft=4;spacingRight=4;" parent="1" source="iBqOPXZgStH-W47dtHoI-5" target="1ztC85pV6qE-m2-LkMGd-46" edge="1">
          <mxGeometry relative="1" as="geometry">
            <mxPoint x="110" y="800" as="sourcePoint" />
            <mxPoint x="250" y="830" as="targetPoint" />
          </mxGeometry>
        </mxCell>
        <mxCell id="Wk9RCVSlq2P9ijG3V8jc-1" value="Habitat Fuel" style="rounded=0;whiteSpace=wrap;html=1;shadow=0;dashed=0;pointerEvents=1;strokeColor=default;strokeWidth=2;fontFamily=Helvetica;fontSize=12;fontColor=default;fillColor=default;spacing=6;spacingLeft=4;spacingRight=4;" parent="1" vertex="1">
          <mxGeometry x="60" y="428" width="80" height="55" as="geometry" />
        </mxCell>
        <mxCell id="Wk9RCVSlq2P9ijG3V8jc-3" value="Reaction Control Thrusters" style="rounded=0;whiteSpace=wrap;html=1;shadow=0;dashed=0;pointerEvents=1;strokeColor=default;strokeWidth=2;fontFamily=Helvetica;fontSize=12;fontColor=default;fillColor=default;spacing=6;spacingLeft=4;spacingRight=4;" parent="1" vertex="1">
          <mxGeometry x="1061" y="450" width="180" height="60" as="geometry" />
        </mxCell>
        <mxCell id="Wk9RCVSlq2P9ijG3V8jc-4" style="edgeStyle=orthogonalEdgeStyle;shape=connector;rounded=0;orthogonalLoop=1;jettySize=auto;html=1;exitX=0;exitY=0.5;exitDx=0;exitDy=0;labelBackgroundColor=default;strokeColor=#99004D;fontFamily=Helvetica;fontSize=11;fontColor=default;endArrow=none;endFill=0;spacing=6;spacingLeft=4;spacingRight=4;" parent="1" source="Wk9RCVSlq2P9ijG3V8jc-3" edge="1">
          <mxGeometry relative="1" as="geometry">
            <mxPoint x="1040" y="640" as="targetPoint" />
            <mxPoint x="1154" y="603" as="sourcePoint" />
            <Array as="points">
              <mxPoint x="1040" y="480" />
              <mxPoint x="1040" y="575" />
              <mxPoint x="1041" y="575" />
              <mxPoint x="1041" y="640" />
            </Array>
          </mxGeometry>
        </mxCell>
        <mxCell id="iBqOPXZgStH-W47dtHoI-1" value="Fuel Cell" style="rounded=0;whiteSpace=wrap;html=1;shadow=0;dashed=0;pointerEvents=1;strokeColor=default;strokeWidth=2;fontFamily=Helvetica;fontSize=12;fontColor=default;fillColor=default;spacing=6;spacingLeft=4;spacingRight=4;fontStyle=1" parent="1" vertex="1">
          <mxGeometry x="20" y="260" width="160" height="120" as="geometry" />
        </mxCell>
        <mxCell id="iBqOPXZgStH-W47dtHoI-2" value="Habitat Tokamak Reactor" style="rounded=0;whiteSpace=wrap;html=1;shadow=0;dashed=0;pointerEvents=1;strokeColor=default;strokeWidth=2;fontFamily=Helvetica;fontSize=12;fontColor=default;fillColor=default;spacing=6;spacingLeft=4;spacingRight=4;fontStyle=1" parent="1" vertex="1">
          <mxGeometry x="20" y="540" width="160" height="120" as="geometry" />
        </mxCell>
        <mxCell id="iBqOPXZgStH-W47dtHoI-3" value="Primary Battery" style="rounded=0;whiteSpace=wrap;html=1;shadow=0;dashed=0;pointerEvents=1;strokeColor=default;strokeWidth=2;fontFamily=Helvetica;fontSize=12;fontColor=default;fillColor=default;spacing=6;spacingLeft=4;spacingRight=4;fontStyle=1" parent="1" vertex="1">
          <mxGeometry x="20" y="110" width="160" height="100" as="geometry" />
        </mxCell>
        <mxCell id="iBqOPXZgStH-W47dtHoI-4" value="Backup Battery" style="rounded=0;whiteSpace=wrap;html=1;shadow=0;dashed=0;pointerEvents=1;strokeColor=default;strokeWidth=2;fontFamily=Helvetica;fontSize=12;fontColor=default;fillColor=default;spacing=6;spacingLeft=4;spacingRight=4;fontStyle=1" parent="1" vertex="1">
          <mxGeometry x="20" y="12" width="160" height="90" as="geometry" />
        </mxCell>
        <mxCell id="iBqOPXZgStH-W47dtHoI-5" value="AYSE Tokamak Reactor" style="rounded=0;whiteSpace=wrap;html=1;shadow=0;dashed=0;pointerEvents=1;strokeColor=default;strokeWidth=2;fontFamily=Helvetica;fontSize=12;fontColor=default;fillColor=default;spacing=6;spacingLeft=4;spacingRight=4;fontStyle=1" parent="1" vertex="1">
          <mxGeometry x="20" y="727" width="160" height="120" as="geometry" />
        </mxCell>
        <mxCell id="iBqOPXZgStH-W47dtHoI-6" value="AYSE Battery" style="rounded=0;whiteSpace=wrap;html=1;shadow=0;dashed=0;pointerEvents=1;strokeColor=default;strokeWidth=2;fontFamily=Helvetica;fontSize=12;fontColor=default;fillColor=default;spacing=6;spacingLeft=4;spacingRight=4;fontStyle=1" parent="1" vertex="1">
          <mxGeometry x="20" y="854" width="160" height="100" as="geometry" />
        </mxCell>
        <mxCell id="1ztC85pV6qE-m2-LkMGd-75" value="&lt;div style=&quot;font-size: 12px;&quot;&gt;Reactor Heater&lt;/div&gt;" style="rounded=0;whiteSpace=wrap;html=1;shadow=0;dashed=0;pointerEvents=1;strokeColor=default;strokeWidth=2;fontFamily=Helvetica;fontSize=12;fontColor=default;fillColor=default;spacing=6;spacingLeft=4;spacingRight=4;" parent="1" vertex="1">
          <mxGeometry x="1064" y="109" width="60" height="60" as="geometry" />
        </mxCell>
        <mxCell id="myox8_UyH-Cyfy9n1glV-82" value="Loop 1 Primary Coolant Pump" style="rounded=0;html=1;shadow=0;dashed=0;pointerEvents=1;strokeColor=default;strokeWidth=2;fontFamily=Helvetica;fontSize=12;fontColor=default;fillColor=default;whiteSpace=wrap;spacing=6;spacingLeft=4;spacingRight=4;" parent="1" vertex="1">
          <mxGeometry x="500" y="125" width="140" height="70" as="geometry" />
        </mxCell>
        <mxCell id="YNG6cmj127ah9UYwoeb--5" style="edgeStyle=orthogonalEdgeStyle;shape=connector;rounded=0;orthogonalLoop=1;jettySize=auto;html=1;exitX=0;exitY=0.2;exitDx=0;exitDy=0;exitPerimeter=0;labelBackgroundColor=default;strokeColor=#001DBC;fontFamily=Helvetica;fontSize=11;fontColor=default;endArrow=none;endFill=0;spacing=6;spacingLeft=4;spacingRight=4;entryX=1;entryY=0.5;entryDx=0;entryDy=0;" parent="1" source="1ztC85pV6qE-m2-LkMGd-18" target="iBqOPXZgStH-W47dtHoI-4" edge="1">
          <mxGeometry relative="1" as="geometry">
            <Array as="points">
              <mxPoint x="230" y="70" />
              <mxPoint x="230" y="57" />
            </Array>
            <mxPoint x="190" y="170" as="targetPoint" />
            <mxPoint x="325" y="100" as="sourcePoint" />
          </mxGeometry>
        </mxCell>
        <mxCell id="1ztC85pV6qE-m2-LkMGd-18" value="&lt;div style=&quot;font-size: 12px;&quot;&gt;Low-Voltage Habitat Bus&lt;br style=&quot;font-size: 12px;&quot;&gt;&lt;/div&gt;" style="shape=stencil(rZXhbsIgEMefhq+Gcpu6j6Zz74EVVyKDBjqdb++1tHWz0swCaZrc/Xs/esflIJC7kleCMFoSeCeMZZTiG+3znc1dJYraO0/cSr5TwiuutuYoznJfdwypS2Fl3aiwJXSD3zQP5IXRGiHSaPdH+aUjjEuNsfTHw7rtL521yLxN2MdsBItHQDziJR7xGo9YxiNW8Yh1POLteUSWoJwLwJWgRfvNb5BZf7PElaDbH2U1o8DjrNapsgp0DOToCY0ZyHe8OH5a863346igdjBWPBAGWSrlR+BEXhVvhuNI6OUvcxLB1p6qWA9QUgcBwwh/BjEEdZBVAgb8i1Eo46ZKif5ANfEyC51DGzY6yNbrL8DWcQU=);whiteSpace=wrap;html=1;strokeWidth=3;align=center;fontSize=12;spacing=6;spacingLeft=4;spacingRight=4;" parent="1" vertex="1">
          <mxGeometry x="280" y="50" width="70" height="100" as="geometry" />
        </mxCell>
        <mxCell id="YNG6cmj127ah9UYwoeb--8" style="edgeStyle=orthogonalEdgeStyle;shape=connector;rounded=0;jumpStyle=arc;orthogonalLoop=1;jettySize=auto;html=1;labelBackgroundColor=none;strokeColor=#999900;fontFamily=Helvetica;fontSize=8;fontColor=default;endArrow=none;endFill=0;spacing=6;spacingLeft=4;spacingRight=4;exitX=0.5;exitY=1;exitDx=0;exitDy=0;" parent="1" source="myox8_UyH-Cyfy9n1glV-149" edge="1">
          <mxGeometry relative="1" as="geometry">
            <mxPoint x="1060" y="840" as="targetPoint" />
            <mxPoint x="1020" y="807" as="sourcePoint" />
          </mxGeometry>
        </mxCell>
        <mxCell id="YNG6cmj127ah9UYwoeb--9" style="edgeStyle=orthogonalEdgeStyle;shape=connector;rounded=0;jumpStyle=arc;orthogonalLoop=1;jettySize=auto;html=1;labelBackgroundColor=none;strokeColor=#999900;fontFamily=Helvetica;fontSize=8;fontColor=default;endArrow=none;endFill=0;spacing=6;spacingLeft=4;spacingRight=4;exitX=0.5;exitY=1;exitDx=0;exitDy=0;" parent="1" source="myox8_UyH-Cyfy9n1glV-160" edge="1">
          <mxGeometry relative="1" as="geometry">
            <mxPoint x="930" y="840" as="targetPoint" />
            <mxPoint x="1030" y="817" as="sourcePoint" />
          </mxGeometry>
        </mxCell>
        <mxCell id="YNG6cmj127ah9UYwoeb--10" style="edgeStyle=orthogonalEdgeStyle;shape=connector;rounded=0;jumpStyle=arc;orthogonalLoop=1;jettySize=auto;html=1;labelBackgroundColor=none;strokeColor=#999900;fontFamily=Helvetica;fontSize=8;fontColor=default;endArrow=none;endFill=0;spacing=6;spacingLeft=4;spacingRight=4;exitX=0.5;exitY=1;exitDx=0;exitDy=0;" parent="1" source="myox8_UyH-Cyfy9n1glV-157" edge="1">
          <mxGeometry relative="1" as="geometry">
            <mxPoint x="800" y="840" as="targetPoint" />
            <mxPoint x="1040" y="827" as="sourcePoint" />
          </mxGeometry>
        </mxCell>
        <mxCell id="YNG6cmj127ah9UYwoeb--11" style="edgeStyle=orthogonalEdgeStyle;shape=connector;rounded=0;jumpStyle=arc;orthogonalLoop=1;jettySize=auto;html=1;labelBackgroundColor=none;strokeColor=#999900;fontFamily=Helvetica;fontSize=8;fontColor=default;endArrow=none;endFill=0;spacing=6;spacingLeft=4;spacingRight=4;exitX=0.5;exitY=0;exitDx=0;exitDy=0;" parent="1" source="myox8_UyH-Cyfy9n1glV-152" edge="1">
          <mxGeometry relative="1" as="geometry">
            <mxPoint x="930" y="840" as="targetPoint" />
            <mxPoint x="1056" y="837" as="sourcePoint" />
          </mxGeometry>
        </mxCell>
        <mxCell id="YNG6cmj127ah9UYwoeb--12" style="edgeStyle=orthogonalEdgeStyle;shape=connector;rounded=0;jumpStyle=arc;orthogonalLoop=1;jettySize=auto;html=1;labelBackgroundColor=none;strokeColor=#999900;fontFamily=Helvetica;fontSize=8;fontColor=default;endArrow=none;endFill=0;spacing=6;spacingLeft=4;spacingRight=4;exitX=0.5;exitY=0;exitDx=0;exitDy=0;" parent="1" source="myox8_UyH-Cyfy9n1glV-153" edge="1">
          <mxGeometry relative="1" as="geometry">
            <mxPoint x="1060" y="840" as="targetPoint" />
            <mxPoint x="1060" y="847" as="sourcePoint" />
          </mxGeometry>
        </mxCell>
        <mxCell id="YNG6cmj127ah9UYwoeb--16" style="edgeStyle=orthogonalEdgeStyle;shape=connector;rounded=0;orthogonalLoop=1;jettySize=auto;html=1;exitX=0.5;exitY=1;exitDx=0;exitDy=0;labelBackgroundColor=default;strokeColor=#001DBC;fontFamily=Helvetica;fontSize=11;fontColor=default;endArrow=none;endFill=0;spacing=6;spacingLeft=4;spacingRight=4;" parent="1" source="myox8_UyH-Cyfy9n1glV-121" edge="1">
          <mxGeometry relative="1" as="geometry">
            <mxPoint x="1024" y="100" as="targetPoint" />
            <mxPoint x="763" y="119" as="sourcePoint" />
          </mxGeometry>
        </mxCell>
        <mxCell id="YNG6cmj127ah9UYwoeb--17" style="edgeStyle=orthogonalEdgeStyle;shape=connector;rounded=0;orthogonalLoop=1;jettySize=auto;html=1;exitX=0.5;exitY=1;exitDx=0;exitDy=0;labelBackgroundColor=default;strokeColor=#001DBC;fontFamily=Helvetica;fontSize=11;fontColor=default;endArrow=none;endFill=0;spacing=6;spacingLeft=4;spacingRight=4;" parent="1" source="myox8_UyH-Cyfy9n1glV-122" edge="1">
          <mxGeometry relative="1" as="geometry">
            <mxPoint x="1094" y="100" as="targetPoint" />
            <mxPoint x="773" y="129" as="sourcePoint" />
          </mxGeometry>
        </mxCell>
        <mxCell id="YNG6cmj127ah9UYwoeb--18" style="edgeStyle=orthogonalEdgeStyle;shape=connector;rounded=0;orthogonalLoop=1;jettySize=auto;html=1;exitX=0.5;exitY=0;exitDx=0;exitDy=0;labelBackgroundColor=default;strokeColor=#001DBC;fontFamily=Helvetica;fontSize=11;fontColor=default;endArrow=none;endFill=0;spacing=6;spacingLeft=4;spacingRight=4;" parent="1" source="1ztC85pV6qE-m2-LkMGd-75" edge="1">
          <mxGeometry relative="1" as="geometry">
            <mxPoint x="1094" y="100" as="targetPoint" />
            <mxPoint x="783" y="139" as="sourcePoint" />
          </mxGeometry>
        </mxCell>
        <mxCell id="YNG6cmj127ah9UYwoeb--19" style="edgeStyle=orthogonalEdgeStyle;shape=connector;rounded=0;orthogonalLoop=1;jettySize=auto;html=1;exitX=0.5;exitY=1;exitDx=0;exitDy=0;labelBackgroundColor=default;strokeColor=#001DBC;fontFamily=Helvetica;fontSize=11;fontColor=default;endArrow=none;endFill=0;spacing=6;spacingLeft=4;spacingRight=4;" parent="1" source="myox8_UyH-Cyfy9n1glV-105" edge="1">
          <mxGeometry relative="1" as="geometry">
            <mxPoint x="1164" y="100" as="targetPoint" />
            <mxPoint x="793" y="149" as="sourcePoint" />
          </mxGeometry>
        </mxCell>
        <mxCell id="YNG6cmj127ah9UYwoeb--20" style="edgeStyle=orthogonalEdgeStyle;shape=connector;rounded=0;orthogonalLoop=1;jettySize=auto;html=1;exitX=0.5;exitY=0;exitDx=0;exitDy=0;labelBackgroundColor=default;strokeColor=#001DBC;fontFamily=Helvetica;fontSize=11;fontColor=default;endArrow=none;endFill=0;spacing=6;spacingLeft=4;spacingRight=4;" parent="1" source="myox8_UyH-Cyfy9n1glV-106" edge="1">
          <mxGeometry relative="1" as="geometry">
            <mxPoint x="1164" y="100" as="targetPoint" />
            <mxPoint x="803" y="159" as="sourcePoint" />
          </mxGeometry>
        </mxCell>
        <mxCell id="YNG6cmj127ah9UYwoeb--21" style="edgeStyle=orthogonalEdgeStyle;shape=connector;rounded=0;orthogonalLoop=1;jettySize=auto;html=1;exitX=0.5;exitY=0;exitDx=0;exitDy=0;labelBackgroundColor=default;strokeColor=#001DBC;fontFamily=Helvetica;fontSize=11;fontColor=default;endArrow=none;endFill=0;spacing=6;spacingLeft=4;spacingRight=4;" parent="1" source="myox8_UyH-Cyfy9n1glV-108" edge="1">
          <mxGeometry relative="1" as="geometry">
            <mxPoint x="1234" y="100" as="targetPoint" />
            <mxPoint x="813" y="169" as="sourcePoint" />
          </mxGeometry>
        </mxCell>
        <mxCell id="YNG6cmj127ah9UYwoeb--22" style="edgeStyle=orthogonalEdgeStyle;shape=connector;rounded=0;orthogonalLoop=1;jettySize=auto;html=1;exitX=0.5;exitY=1;exitDx=0;exitDy=0;labelBackgroundColor=default;strokeColor=#001DBC;fontFamily=Helvetica;fontSize=11;fontColor=default;endArrow=none;endFill=0;spacing=6;spacingLeft=4;spacingRight=4;" parent="1" source="myox8_UyH-Cyfy9n1glV-107" edge="1">
          <mxGeometry relative="1" as="geometry">
            <mxPoint x="1234" y="100" as="targetPoint" />
            <mxPoint x="823" y="179" as="sourcePoint" />
          </mxGeometry>
        </mxCell>
        <mxCell id="hoR6StkbCMHp0mI4zMyg-4" value="Fuel Cell Injector" style="rounded=0;html=1;shadow=0;dashed=0;pointerEvents=1;strokeColor=default;strokeWidth=2;fontFamily=Helvetica;fontSize=12;fontColor=default;fillColor=default;whiteSpace=wrap;spacing=6;spacingLeft=4;spacingRight=4;" vertex="1" parent="1">
          <mxGeometry x="825" y="19" width="140" height="70" as="geometry" />
        </mxCell>
        <mxCell id="hoR6StkbCMHp0mI4zMyg-5" style="edgeStyle=orthogonalEdgeStyle;shape=connector;rounded=0;orthogonalLoop=1;jettySize=auto;html=1;exitX=0.5;exitY=1;exitDx=0;exitDy=0;labelBackgroundColor=default;strokeColor=#001DBC;fontFamily=Helvetica;fontSize=11;fontColor=default;endArrow=none;endFill=0;spacing=6;spacingLeft=4;spacingRight=4;" edge="1" parent="1" source="hoR6StkbCMHp0mI4zMyg-4">
          <mxGeometry relative="1" as="geometry">
            <mxPoint x="895" y="100" as="targetPoint" />
            <mxPoint x="743" y="99" as="sourcePoint" />
          </mxGeometry>
        </mxCell>
        <mxCell id="hoR6StkbCMHp0mI4zMyg-7" value="" style="edgeStyle=orthogonalEdgeStyle;shape=connector;rounded=0;orthogonalLoop=1;jettySize=auto;html=1;labelBackgroundColor=default;strokeColor=#99004D;fontFamily=Helvetica;fontSize=11;fontColor=default;endArrow=none;endFill=0;spacing=6;spacingLeft=4;spacingRight=4;exitX=0.5;exitY=1;exitDx=0;exitDy=0;entryX=0.367;entryY=0.258;entryDx=0;entryDy=0;entryPerimeter=0;" edge="1" parent="1" source="myox8_UyH-Cyfy9n1glV-82" target="_JEZ3J47ZPrk2JFdRRhO-15">
          <mxGeometry relative="1" as="geometry">
            <mxPoint x="360" y="410" as="sourcePoint" />
            <mxPoint x="490" y="410" as="targetPoint" />
            <Array as="points">
              <mxPoint x="570" y="220" />
              <mxPoint x="480" y="220" />
            </Array>
          </mxGeometry>
        </mxCell>
        <mxCell id="hoR6StkbCMHp0mI4zMyg-8" value="" style="edgeStyle=orthogonalEdgeStyle;shape=connector;rounded=0;orthogonalLoop=1;jettySize=auto;html=1;labelBackgroundColor=default;strokeColor=#99004D;fontFamily=Helvetica;fontSize=11;fontColor=default;endArrow=none;endFill=0;spacing=6;spacingLeft=4;spacingRight=4;exitX=0.5;exitY=1;exitDx=0;exitDy=0;entryX=0.408;entryY=0.175;entryDx=0;entryDy=0;entryPerimeter=0;" edge="1" parent="1" source="myox8_UyH-Cyfy9n1glV-83" target="_JEZ3J47ZPrk2JFdRRhO-15">
          <mxGeometry relative="1" as="geometry">
            <mxPoint x="580" y="205" as="sourcePoint" />
            <mxPoint x="490" y="410" as="targetPoint" />
            <Array as="points">
              <mxPoint x="720" y="220" />
              <mxPoint x="480" y="220" />
            </Array>
          </mxGeometry>
        </mxCell>
      </root>
    </mxGraphModel>
  </diagram>
</mxfile>
